# xmcd
#
# Track frame offsets:
#	150
#	15999
#	31384
#	50662
#	65927
#	75982
#	89064
#	101312
#	117510
#	137545
#	151895
#	159187
#
# Disc length: 2355 seconds
#
# Revision: 0
# Processed by: cddbd v1.5.1PL2 Copyright (c) Steve Scherf et al.
# Submitted via: dBpowerAMP V4.0
#
DISCID=8f09310c
DTITLE=Chicken Shack - 100 Ton Chicken
DYEAR=1969
DGENRE=Blues
TTITLE0=The Road of Love
TTITLE1=Look Ma I´m Crying
TTITLE2=Evelyn
TTITLE3=Reconsider Baby
TTITLE4=Weekend Love
TTITLE5=Midnight Hour
TTITLE6=Tears in the Wind
TTITLE7=Horde And Cart
TTITLE8=The Way Is Is
TTITLE9=Still Worried About My Woman
TTITLE10=Anji
TTITLE11=The Things You Put Me Through (Bonus)
EXTD=
EXTT0=
EXTT1=
EXTT2=
EXTT3=
EXTT4=
EXTT5=
EXTT6=
EXTT7=
EXTT8=
EXTT9=
EXTT10=
EXTT11=
PLAYORDER=
